Coordinates
version=1
nRows=22
nColumns=24
inDegrees=yes

Units are S.I. units (second, meters, Newtons, ...)
Angles are in degrees.

endheader
time	pelvis_tilt	pelvis_list	pelvis_rotation	pelvis_tx	pelvis_ty	pelvis_tz	hip_flexion_r	hip_adduction_r	hip_rotation_r	knee_angle_r	ankle_angle_r	subtalar_angle_r	mtp_angle_r	hip_flexion_l	hip_adduction_l	hip_rotation_l	knee_angle_l	ankle_angle_l	subtalar_angle_l	mtp_angle_l	lumbar_extension	lumbar_bending	lumbar_rotation
      1.58750000	      5.04824879	      6.05878449	     -3.61871236	      0.40518747	      1.07667754	      0.30946102	     12.36203086	     -7.71221889	      2.14560313	    -61.25508200	      1.44058902	    -11.67468887	     12.19046686	     -1.68116723	     12.04489672	     -1.58647274	     -1.63609054	     -3.80021128	     -6.91504192	      3.92014058	     -0.21726542	     -4.45129206	      1.08783219
      1.59166667	      5.05378016	      6.11074025	     -3.53763700	      0.40981024	      1.07699722	      0.30941038	     12.86287989	     -7.70220710	      2.32502930	    -60.85798928	      1.66875880	    -11.89405928	     12.14264516	     -2.09887902	     12.11182045	     -1.42211007	     -1.38803643	     -3.75838266	     -6.83957295	      3.89797358	     -0.26948700	     -4.48452025	      1.01733410
      1.59583333	      5.09572191	      6.18978111	     -3.40851181	      0.41436037	      1.07731827	      0.30915533	     13.31757512	     -7.75471565	      2.40535082	    -60.47324707	      2.18143234	    -12.39083529	     12.03637056	     -2.54796976	     12.22454624	     -1.24581459	     -1.15596851	     -3.64446416	     -6.79347802	      3.84606084	     -0.26675609	     -4.56698435	      0.87542065
      1.60000000	      5.10577325	      6.23493718	     -3.29817850	      0.41898003	      1.07760730	      0.30902346	     13.78214977	     -7.75191175	      2.53008125	    -60.01063890	      2.50755647	    -12.71006390	     11.94050211	     -2.97777106	     12.28462601	     -1.07056964	     -0.91175334	     -3.56829421	     -6.73845070	      3.79827676	     -0.30666906	     -4.61539629	      0.74258488
      1.60416667	      5.08708207	      6.26910220	     -3.17705687	      0.42358292	      1.07784715	      0.30899856	     14.26012674	     -7.72263142	      2.66786437	    -59.48740138	      2.71986403	    -12.87414798	     11.89534169	     -3.36832590	     12.31848990	     -0.95614457	     -0.68002171	     -3.52149183	     -6.69529894	      3.77624364	     -0.36645232	     -4.67286624	      0.67916838
      1.60833333	      5.11981556	      6.35080283	     -3.04963953	      0.42811749	      1.07808661	      0.30877034	     14.68959100	     -7.77965421	      2.74705239	    -58.98376289	      3.18454032	    -13.25893099	     11.77775858	     -3.82055469	     12.42571703	     -0.74237777	     -0.42408228	     -3.40860314	     -6.65530885	      3.71611309	     -0.34470076	     -4.75059628	      0.51657672
      1.61250000	      5.07597551	      6.38441837	     -2.93761500	      0.43276587	      1.07824401	      0.30869342	     15.17269900	     -7.75688827	      2.86691126	    -58.39057430	      3.32490345	    -13.34601942	     11.74453598	     -4.19095401	     12.46308579	     -0.66288189	     -0.17173611	     -3.37291221	     -6.61810770	      3.69956598	     -0.41529667	     -4.79959715	      0.46746344
      1.61666667	      5.06774230	      6.44324265	     -2.85319590	      0.43730790	      1.07838940	      0.30870419	     15.62285230	     -7.75268576	      3.04199745	    -57.77579914	      3.57721817	    -13.51000792	     11.69567032	     -4.60555146	     12.52148970	     -0.47332656	      0.09376054	     -3.31501466	     -6.55692809	      3.67531254	     -0.40971902	     -4.86695165	      0.39548057
      1.62083333	      5.04857997	      6.50712277	     -2.66107517	      0.44185328	      1.07852371	      0.30844490	     16.04609750	     -7.80227533	      3.04828563	    -57.13868793	      4.02355679	    -13.81975880	     11.51504726	     -5.00320028	     12.59118558	     -0.23632979	      0.32811741	     -3.16846916	     -6.57499475	      3.57542381	     -0.36808376	     -4.95138660	      0.13603056
      1.62500000	      5.04483432	      6.57889293	     -2.59857830	      0.44639883	      1.07860058	      0.30838814	     16.47889487	     -7.82363288	      3.21216810	    -56.46233742	      4.13375913	    -13.87311528	     11.43616048	     -5.42566551	     12.67522291	     -0.07209380	      0.61545033	     -3.13844919	     -6.51867444	      3.53176180	     -0.35487791	     -5.01673237	      0.03950249
      1.62916667	      5.00194861	      6.62807415	     -2.49635921	      0.45095897	      1.07863171	      0.30837764	     16.92132725	     -7.81646082	      3.34478386	    -55.72930177	      4.25388660	    -13.92017238	     11.39414806	     -5.79431707	     12.71826971	      0.02160224	      0.86323603	     -3.09988098	     -6.48642991	      3.50882882	     -0.39604846	     -5.08578722	     -0.00977231
      1.63333333	      4.97705396	      6.69704476	     -2.41750558	      0.45551530	      1.07863635	      0.30834598	     17.34293775	     -7.83426442	      3.48524125	    -54.97627503	      4.39549641	    -13.98020853	     11.34378532	     -6.19111197	     12.78960415	      0.17152562	      1.13794169	     -3.04471849	     -6.44160628	      3.48117672	     -0.38029402	     -5.16576459	     -0.06919198
      1.63750000	      4.95693908	      6.77279788	     -2.31215769	      0.46009077	      1.07862088	      0.30820457	     17.73922668	     -7.87981338	      3.57357878	    -54.19718257	      4.55873373	    -14.05397002	     11.23247289	     -6.60151884	     12.87142593	      0.39145723	      1.41440062	     -2.94285949	     -6.42093292	      3.41608760	     -0.28995234	     -5.24093893	     -0.20410344
      1.64166667	      4.89118554	      6.83924521	     -2.21689480	      0.46464778	      1.07851792	      0.30817507	     18.17786229	     -7.89713514	      3.67201408	    -53.37733291	      4.62224655	    -14.06571713	     11.20464002	     -6.93810823	     12.93562618	      0.43345393	      1.66347009	     -2.90986666	     -6.39911104	      3.40031143	     -0.35672711	     -5.31272565	     -0.23496648
      1.64583333	      4.84601966	      6.90557331	     -2.15105044	      0.46922807	      1.07840346	      0.30817285	     18.58386715	     -7.91003459	      3.80201444	    -52.52150674	      4.67694157	    -14.07694586	     11.17352625	     -7.30937190	     13.00063577	      0.53846486	      1.93092943	     -2.86612543	     -6.35795460	      3.38298490	     -0.35936607	     -5.39708842	     -0.26791141
      1.65000000	      4.82002252	      6.97750773	     -2.08039692	      0.47373867	      1.07828801	      0.30823225	     18.95438517	     -7.92450180	      3.95906404	    -51.62250985	      4.70007370	    -14.08291360	     11.12439845	     -7.69800694	     13.06043208	      0.70688051	      2.17637245	     -2.80016964	     -6.31320583	      3.35449417	     -0.29387172	     -5.48704398	     -0.32150886
      1.65416667	      4.74413297	      7.04292547	     -1.89499150	      0.47835067	      1.07812650	      0.30796673	     19.33051579	     -7.99074470	      3.92595122	    -50.67541684	      4.53322832	    -14.10283612	     10.82394721	     -8.04841422	     13.11332621	      1.02368429	      2.42275476	     -2.59773592	     -6.37662796	      3.16044706	     -0.17325065	     -5.54892967	     -0.67709876
      1.65833333	      4.70543916	      7.13030251	     -1.86694375	      0.48286537	      1.07789763	      0.30807219	     19.70907832	     -8.01234680	      4.08986376	    -49.74043949	      4.57380635	    -14.10975870	     10.77193645	     -8.41033308	     13.19708429	      1.08864606	      2.66917172	     -2.59953105	     -6.32789768	      3.12686039	     -0.16940002	     -5.66999275	     -0.69956025
      1.66250000	      4.64732279	      7.21089816	     -1.82086783	      0.48744739	      1.07762398	      0.30810378	     20.08602162	     -8.03853608	      4.20355999	    -48.77537931	      4.57196418	    -14.09948767	     10.73584957	     -8.75402872	     13.27495795	      1.14089586	      2.91524376	     -2.56720543	     -6.28876322	      3.10443687	     -0.17529000	     -5.77146918	     -0.71166868
      1.66666667	      4.59896251	      7.29662078	     -1.78164498	      0.49202460	      1.07733181	      0.30815649	     20.43922481	     -8.06892932	      4.31900392	    -47.77236139	      4.52150523	    -14.07620015	     10.69717391	     -9.10749137	     13.35647906	      1.22126449	      3.15822257	     -2.51562883	     -6.24060965	      3.08068432	     -0.14301048	     -5.88099203	     -0.72218730
      1.67083333	      4.57978172	      7.38701253	     -1.73992298	      0.49658057	      1.07704319	      0.30811633	     20.75066239	     -8.12045740	      4.40170098	    -46.74045003	      4.33197744	    -14.03303643	     10.62537729	     -9.49276676	     13.45001763	      1.35052482	      3.39569499	     -2.41418867	     -6.17584006	      3.03513881	     -0.01855280	     -5.97496111	     -0.75079032
      1.67500000	      4.49525540	      7.47714259	     -1.67977971	      0.50112332	      1.07663832	      0.30818476	     21.11698917	     -8.15738124	      4.48828096	    -45.69248508	      4.30382611	    -14.02355838	     10.59648282	     -9.78188922	     13.52844053	      1.37773152	      3.58015274	     -2.36250944	     -6.14832064	      3.01722815	     -0.06922971	     -6.06519200	     -0.75880083
